<?xml version="1.0" encoding="utf-8"?>
<svg width="455" height="39" viewBox="0 0 455 39" fill="none" xmlns="http://www.w3.org/2000/svg">
  <g>
    <path d="M0.744293 21.8384C6.97 14.2735 13.8458 7.27942 20.3967 0C24.6892 0.034969 29.7072 0.0699381 34 0.10473L11.6064 22.991C11.1716 23.4353 11.0326 24.3908 11.4249 24.8761L21.2243 37C17.1732 37 13.1219 37 9.0708 37L0.227203 24.5098C-0.295044 23.7716 0.170197 22.5363 0.744293 21.8384" fill="#FEFEFE" fill-rule="evenodd" transform="translate(382 0)" />
    <path d="M16.8734 0L29 0L12.1263 39L0 39L16.8734 0Z" fill="#FEFEFE" fill-rule="evenodd" transform="translate(364 0)" />
    <path d="M46.8702 0.328781L17.455 0C11.6367 12.9725 5.81857 26.027 0 39L12.6716 38.9826C17.6638 27.1794 22.5912 15.5303 27.5835 3.72714L36.6343 3.72714C37.2202 3.72714 37.1165 4.93236 36.9182 5.49343C35.0916 10.6454 32.8795 15.653 30.6403 20.6342C30.4343 21.0931 30.1117 21.747 29.6166 21.7333L22.2896 21.5303C20.9229 21.492 19.7993 24.6473 20.5642 25.8005L29.3073 38.9852L41.5452 38.997C38.1863 34.3805 34.5178 29.723 31.3409 24.976C31.1476 24.6871 31.1047 23.9368 31.4486 23.9318L38.6153 23.8217C40.4852 23.7932 42.4093 22.1592 43.099 20.3905L48.702 6.02935C49.4267 4.17151 48.8348 0.350948 46.8702 0.328781" fill="#FEFEFE" fill-rule="evenodd" transform="translate(323 0)" />
    <path d="M52 0L20.3741 0.00505948C16.4976 0.00532577 14.5504 5.58736 12.6321 10.4235C10.7579 15.1498 25.4586 18.4396 27.2692 21.8897C28.2232 23.7079 24.8536 31.3619 22.278 33.1219C19.2592 33.1734 9.04062 33.0519 2.42188 33.0172C1.50775 34.5145 0.914124 35.487 0 36.9846L31.6575 37C33.1458 37.0004 34.6144 36.389 35.4422 35.2113C37.5655 32.1909 39.0201 28.7096 39.9399 25.1816C40.3398 23.6472 40.5063 21.5475 39.2818 20.4802C35.3869 17.0847 29.7737 15.9233 25.6787 12.7489C24.7884 12.0588 24.8148 10.5614 25.13 9.51023C25.666 7.72423 26.1493 6.44782 27.5159 5.1233C28.3436 4.32124 29.6271 3.91711 30.8071 3.86953C36.7774 3.62951 43.3319 3.7173 49.3064 3.85044C50.2024 2.51492 51.1038 1.33561 52 0" fill="#FEFEFE" fill-rule="evenodd" transform="translate(403 0)" />
    <path d="M26.7929 3.41858L35.8177 3.37396C37.0737 3.3679 35.7183 5.74787 35.267 6.94596C33.8746 10.641 24.9942 35.1482 22.8535 35.1446L13.8853 35.1304C12.2682 35.1277 13.8967 31.5155 14.6085 30.0307C16.4039 26.286 25.774 3.42333 26.7929 3.41858ZM12.6153 4.34232C13.4437 2.40876 15.1091 0.0586014 17.1741 0.0546888L46.2968 5.75544e-06C48.0524 -0.00344104 49.5283 3.08769 48.8175 4.72706L36.0529 34.1628C35.135 36.2793 33.437 39.0016 31.1724 39L2.18262 38.9825C0.125916 38.9809 -0.466064 34.8789 0.359344 32.9518L12.6153 4.34232Z" fill="#FEFEFE" fill-rule="evenodd" transform="translate(284 0)" />
    <path d="M0 38.9995L0.0284729 0.0251535L12.7205 0.0798392L12.7745 24.3769L26.7994 0.109651L41.6293 0.134991L41.6739 25.1332L55.866 0L64 0.109651L42.5085 38.9808L28.9125 38.9924L29.1852 11.075L13.5642 39L0 38.9995Z" fill="#FEFEFE" fill-rule="evenodd" transform="translate(222 0)" />
    <path d="M3.08286 0L18 0L14.9174 8L0 8L3.08286 0Z" fill="#FEFEFE" fill-rule="evenodd" transform="translate(201 17)" />
    <path d="M52 0L20.4173 0.00495728C16.5463 0.00522285 14.6016 5.57216 12.6858 10.3953C10.8141 15.1086 25.4951 18.3897 27.3032 21.8305C28.2557 23.6437 24.8907 31.277 22.3185 33.0318C19.3042 33.0835 9.09921 32.9626 2.48951 32.9277C1.57671 34.4212 0.913076 35.5064 0 37L31.7676 36.9129C33.2538 36.9086 34.6382 36.2901 35.4648 35.1158C37.5852 32.1038 39.0381 28.6319 39.9563 25.1134C40.3558 23.5832 40.522 21.4892 39.2991 20.4247C35.4099 17.0382 29.8042 15.8799 25.7147 12.7144C24.8255 12.0261 24.8519 10.5328 25.1669 9.48443C25.7022 7.70326 26.1845 6.4303 27.5494 5.10945C28.3763 4.30947 29.6577 3.90598 30.8363 3.85907C36.7982 3.61961 43.3437 3.70672 49.3102 3.83995C50.2051 2.50777 51.1051 1.33192 52 0" fill="#FEFEFE" fill-rule="evenodd" transform="translate(31 0)" />
    <path d="M16.8738 0L29 0L12.1262 39L0 39L16.8738 0Z" fill="#FEFEFE" fill-rule="evenodd" transform="translate(83 0)" />
    <path d="M37 0L33.6432 38.9795L24.7753 38.9841L26.494 23.1509L19.2412 23.158L8.52536 38.9929L0 39C0 39 24.4351 3.79094 25.3118 2.53778C26.1888 1.28462 28.042 0.00229298 29.2886 0.00229298L37 0ZM27.7482 10.7819L21.9941 20.3085L26.7397 20.3058L27.7482 10.7819Z" fill="#FEFEFE" fill-rule="evenodd" />
    <path d="M26.7927 3.41858L35.8175 3.37396C37.0736 3.3679 35.718 5.74787 35.2668 6.94596C33.8745 10.641 24.9944 35.1482 22.8534 35.1446L13.8853 35.1304C12.2681 35.1277 13.8966 31.5155 14.6085 30.0307C16.4037 26.286 25.7739 3.42333 26.7927 3.41858ZM12.6153 4.34232C13.4436 2.40876 15.109 0.0586014 17.174 0.0546888L46.2967 5.75544e-06C48.0522 -0.00344104 49.5283 3.08769 48.8175 4.72706L36.0528 34.1628C35.1349 36.2793 33.4369 39.0016 31.1723 39L2.18288 38.9825C0.125916 38.9809 -0.46608 34.8789 0.359344 32.9518L12.6153 4.34232Z" fill="#FEFEFE" fill-rule="evenodd" transform="translate(151 0)" />
    <path d="M34 0L4.44943 0.00653642C2.55948 0.00689956 1.16077 2.0804 0 5L31.5995 5C32.3984 3.28032 33.2012 1.73663 34 0" fill="#FEFEFE" fill-rule="evenodd" transform="translate(88 0)" />
    <path d="M46.8705 0.328781L17.455 0C11.6367 12.9725 5.81857 26.027 0 39L12.6715 38.9826C17.6639 27.1794 22.5911 15.5303 27.5835 3.72714L36.6342 3.72714C37.2202 3.72714 37.1166 4.93236 36.9182 5.49343C35.0915 10.6454 32.8797 15.653 30.6403 20.6342C30.4342 21.0931 30.1117 21.747 29.6165 21.7333L22.2895 21.5303C20.9228 21.492 19.7992 24.6473 20.5645 25.8005L29.3072 38.9852L41.5451 38.997C38.1862 34.3805 34.5178 29.723 31.3409 24.976C31.1476 24.6871 31.1047 23.9368 31.4486 23.9318L38.6152 23.8217C40.4852 23.7932 42.4093 22.1592 43.099 20.3905L48.702 6.02935C49.4267 4.17151 48.8348 0.350948 46.8705 0.328781" fill="#FEFEFE" fill-rule="evenodd" transform="translate(107 0)" />
  </g>
</svg>