<?xml version="1.0" encoding="utf-8"?>
<svg width="166.988" height="76.961" viewBox="0 0 166.988 76.961" fill="none" xmlns="http://www.w3.org/2000/svg">
  <path d="M3.05128e-05 38.9397L5.80112 38.9397L5.80112 76.3895L3.05128e-05 76.3895L3.05128e-05 38.9397ZM24.6024 51.8549C24.6024 51.8549 15.1712 61.7513 15.1712 61.7513C14.0897 62.886 14.5828 64.5521 15.6273 65.7202C15.6273 65.7202 25.427 76.684 25.427 76.684L17.6291 76.684C17.6291 76.684 8.55758 66.1417 8.55758 66.1417C7.46585 64.8732 7.45316 63.0553 8.55819 61.7975C8.55819 61.7975 17.2912 51.8549 17.2912 51.8549L24.6024 51.8549ZM36.3362 51.6054C36.4958 51.6054 36.6539 51.6097 36.8114 51.6159C36.9875 51.6097 37.1641 51.6054 37.3415 51.6054C44.0047 51.6054 49.4742 56.1189 50.0512 61.8746C50.1977 62.3605 50.277 62.875 50.277 63.407C50.277 63.407 50.277 76.8697 50.277 76.8697L44.946 76.8697C44.946 76.8697 44.9309 72.7983 44.9309 72.7983C42.8449 75.0832 40.3673 76.8963 36.2489 76.8697C30.5399 76.8697 24.1437 71.2142 24.1437 64.2377C24.1437 57.2608 29.6027 51.6054 36.3362 51.6054C36.3362 51.6054 36.3362 51.6054 36.3362 51.6054ZM37.1669 57.2358C41.077 57.2358 44.2465 60.4175 44.2465 64.3429C44.2465 68.2678 41.077 71.4496 37.1669 71.4496C33.2568 71.4496 30.0871 68.2678 30.0871 64.3429C30.0871 60.4175 33.2568 57.2358 37.1669 57.2358C37.1669 57.2358 37.1669 57.2358 37.1669 57.2358ZM83.0841 52.2877L88.9376 52.2877L88.9376 76.3957L83.0841 76.3957L83.0841 52.2877ZM85.8819 38.777C88.0615 38.777 89.828 40.5442 89.828 42.7238C89.828 44.9038 88.0615 46.6707 85.8819 46.6707C83.7025 46.6707 81.9361 44.9038 81.9361 42.7238C81.9361 40.5442 83.7025 38.777 85.8819 38.777C85.8819 38.777 85.8819 38.777 85.8819 38.777ZM105.386 51.0768C111.897 51.0768 117.224 56.405 117.224 62.9175C117.224 62.9175 117.224 76.5941 117.224 76.5941L111.535 76.5941C111.535 76.5941 111.535 63.3588 111.535 63.3588C111.535 59.9764 108.768 57.2092 105.386 57.2092C102.004 57.2092 99.237 59.9764 99.237 63.3588C99.237 63.3588 99.237 76.5941 99.237 76.5941L93.5473 76.5941C93.5473 76.5941 93.5473 62.9175 93.5473 62.9175C93.5473 56.405 98.8745 51.0768 105.386 51.0768C105.386 51.0768 105.386 51.0768 105.386 51.0768ZM132.598 51.2602C139.643 51.2602 145.354 57.0136 145.354 64.1107C145.354 64.7978 145.3 65.4722 145.197 66.1299C145.197 66.1299 144.804 66.1299 144.804 66.1299L140.184 66.1299L133.197 66.1299L131.405 66.1299C131.405 66.1299 125.379 66.1299 125.379 66.1299C125.734 69.8406 129.094 71.8915 132.781 72.0044C136.469 72.1177 137.835 70.8559 139.23 69.0673C139.23 69.0673 144.831 69.0673 144.831 69.0673C142.905 73.7035 138.771 76.9609 132.598 76.9609C126.425 76.9609 119.842 71.2075 119.842 64.1107C119.842 57.0136 125.553 51.2602 132.598 51.2602C132.598 51.2602 132.598 51.2602 132.598 51.2602ZM125.675 61.5407C125.675 61.5407 139.888 61.5407 139.888 61.5407C139.126 58.6632 136.586 56.3959 132.781 56.3959C128.977 56.3959 126.325 58.4367 125.675 61.5407C125.675 61.5407 125.675 61.5407 125.675 61.5407ZM157.381 43.1791L151.857 43.1791C151.857 43.1791 151.857 50.7306 151.857 50.7306C151.822 51.244 151.277 51.8886 150.679 51.9567C150.679 51.9567 145.77 51.9567 145.77 51.9567L145.77 57.3033L151.857 57.3033C151.857 57.3033 151.857 68.669 151.857 68.669C151.857 73.0611 155.451 76.6568 159.844 76.6568C159.844 76.6568 166.773 76.6568 166.773 76.6568L166.773 71.2611C166.773 71.2611 161.221 71.2611 161.221 71.2611C159.109 71.2611 157.381 69.5339 157.381 67.4211C157.381 67.4211 157.381 57.3033 157.381 57.3033L166.988 57.3033L166.988 51.9567L157.381 51.9567L157.381 43.1791ZM67.0501 57.0998C70.9987 57.0998 74.1993 60.2778 74.1993 64.198C74.1993 68.1187 70.9987 71.2968 67.0501 71.2968C63.1015 71.2968 59.9008 68.1187 59.9008 64.198C59.9008 60.2778 63.1015 57.0998 67.0501 57.0998C67.0501 57.0998 67.0501 57.0998 67.0501 57.0998ZM53.8841 38.8947L59.7379 38.8947C59.7379 38.8947 59.7379 55.0074 59.7379 55.0074C61.5908 52.7254 64.4191 51.3917 66.7967 51.2066C74.3351 51.0728 79.8528 56.9631 79.8528 64.0642C79.8528 71.1653 74.0673 76.9218 66.9308 76.9218C60.3486 76.9218 54.9155 72.025 54.1114 65.6924C54.0139 64.9257 53.9303 63.7728 54.0139 63.0023C54.0139 63.0023 53.8841 63.0023 53.8841 63.0023L53.8841 38.8947ZM128.466 0.734828C128.466 0.734828 103.941 0.465218 103.941 0.465218C99.0896 11.0981 94.2383 21.7982 89.3869 32.4311C89.3869 32.4311 99.9526 32.4166 99.9526 32.4166C104.115 22.7427 108.223 13.1947 112.385 3.52024C112.385 3.52024 119.931 3.52024 119.931 3.52024C120.42 3.52024 120.334 4.50818 120.168 4.96769C118.645 9.19056 116.801 13.295 114.934 17.378C114.762 17.7538 114.493 18.2899 114.081 18.2785C114.081 18.2785 107.971 18.1121 107.971 18.1121C106.832 18.081 105.895 20.6668 106.533 21.6126C106.533 21.6126 113.823 32.4192 113.823 32.4192C113.823 32.4192 124.026 32.4288 124.026 32.4288C121.226 28.6447 118.167 24.8274 115.518 20.9367C115.357 20.6997 115.321 20.0849 115.608 20.0806C115.608 20.0806 121.583 19.9905 121.583 19.9905C123.142 19.9669 124.746 18.6278 125.322 17.1781C125.322 17.1781 129.993 5.40702 129.993 5.40702C130.597 3.88446 130.104 0.752628 128.466 0.734828C128.466 0.734828 128.466 0.734828 128.466 0.734828ZM100.67 0.598722C91.9576 0.600121 83.5157 0.601521 74.771 0.603021C73.1141 0.603021 71.8884 1.91097 70.8712 3.75185C70.8712 3.75185 80.0565 3.75185 80.0565 3.75185L67.5107 32.4529L77.5596 32.4529L90.1057 3.75185C90.1057 3.75185 98.5655 3.75185 98.5655 3.75185C99.2659 2.66751 99.9696 1.69377 100.67 0.598725C100.67 0.598725 100.67 0.598722 100.67 0.598722ZM148.386 3.28753C148.386 3.28753 155.946 3.25093 155.946 3.25093C156.998 3.24583 155.862 5.19611 155.485 6.17815C154.318 9.20587 146.88 29.2891 145.086 29.2862C145.086 29.2862 137.574 29.2743 137.574 29.2743C136.219 29.2724 137.583 26.3123 138.18 25.0953C139.684 22.0267 147.533 3.29123 148.386 3.28753C148.386 3.28753 148.386 3.28753 148.386 3.28753ZM136.51 4.04436C137.204 2.4598 138.599 0.533824 140.329 0.530722C140.329 0.530722 164.724 0.48592 164.724 0.48592C166.194 0.48312 167.431 3.01622 166.835 4.35958C166.835 4.35958 156.143 28.4814 156.143 28.4814C155.374 30.216 153.952 32.447 152.055 32.4456C152.055 32.4456 127.771 32.4314 127.771 32.4314C126.048 32.43 125.553 29.0685 126.244 27.489C126.244 27.489 136.51 4.04436 136.51 4.04436ZM30.0513 0L27.3248 32.4439L20.1225 32.4475L21.5184 19.2693L15.6275 19.2753L6.92421 32.4552C6.92421 32.4552 0 32.4611 0 32.4611C0 32.4611 19.8462 3.15543 20.5585 2.11248C21.2704 1.06934 22.7756 0.0019989 23.7881 0.0019989C23.7881 0.0019989 30.0513 0 30.0513 0ZM22.5369 8.97406L17.8634 16.9032L21.7176 16.9012L22.5369 8.97406ZM70.323 0.552825C70.323 0.552825 44.4244 0.557326 44.4244 0.557326C41.2498 0.557326 39.6556 5.35832 38.0846 9.51779C36.5495 13.5822 48.5882 16.4113 50.0709 19.3788C50.8521 20.9426 48.0927 27.5255 45.9835 29.0388C43.5114 29.083 35.1433 28.979 29.7234 28.9492C28.9746 30.237 28.4304 31.1728 27.6816 32.4611C27.6816 32.4611 53.7319 32.3855 53.7319 32.3855C54.9508 32.3821 56.086 31.8486 56.764 30.8359C58.5027 28.2382 59.6942 25.2444 60.4473 22.2098C60.7749 20.8905 60.9109 19.0845 59.9079 18.1666C56.7186 15.2462 52.1218 14.2473 48.7683 11.5174C48.0391 10.9237 48.0612 9.63599 48.3194 8.73196C48.7581 7.19609 49.1538 6.09785 50.2733 4.95921C50.951 4.26918 52.0019 3.92136 52.968 3.88106C57.8574 3.67416 63.2247 3.74956 68.1175 3.86407C68.8514 2.71542 69.5892 1.70118 70.323 0.552833C70.323 0.552833 70.323 0.552825 70.323 0.552825Z" fill="#FFFFFF" fill-rule="evenodd" transform="translate(0 -0)" />
</svg>