<?xml version="1.0" encoding="utf-8"?>
<svg width="21" height="30" viewBox="0 0 21 30" fill="none" xmlns="http://www.w3.org/2000/svg">
  <path d="M0.713867 8.84714L4.27417 8.84714L4.27417 6.15281C4.27417 2.76873 7.07593 0 10.5 0C13.9241 0 16.7256 2.76873 16.7256 6.15281L16.7256 8.84714L20.2861 8.84714C20.342 8.84714 20.3862 8.89267 20.3879 8.94781L20.999 27.9867C21.0347 29.093 20.082 30 18.9619 30L2.03809 30C0.917969 30 -0.034668 29.0935 0.000976562 27.9867L0.612061 8.94781C0.61377 8.89245 0.657959 8.84714 0.713867 8.84714ZM7 9L14 9L14 6.86074C14 4.7373 12.425 3 10.5 3C8.57495 3 7 4.7373 7 6.86074L7 9Z" fill="#FFFFFF" fill-rule="evenodd" />
</svg>