<?xml version="1.0" encoding="utf-8"?>
<svg width="27" height="30" viewBox="0 0 27 30" fill="none" xmlns="http://www.w3.org/2000/svg">
  <path d="M23.7856 0L3.21436 0C1.44604 0 0 1.41688 0 3.1492L0 22.9857C0 24.718 1.44604 26.1349 3.21436 26.1349L18.2644 26.1349L27 30L27 3.1492C27 1.41723 25.5538 0 23.7856 0ZM19.2734 17.7826C20.8754 16.9665 22.1538 15.7787 22.9154 14.3679C23.299 13.5212 22.2928 12.4463 21.6101 13.3315C21.0209 14.4226 19.9884 15.364 18.6698 16.0358C17.3444 16.7111 15.7428 17.1051 14.0138 17.1051C12.2847 17.1051 10.6831 16.7111 9.35767 16.0358C8.03906 15.364 7.00659 14.4226 6.41736 13.3315C5.63196 12.5648 4.66858 13.506 5.11206 14.3679C5.87366 15.7787 7.1521 16.9665 8.75403 17.7826C10.2632 18.5514 12.0731 19 14.0138 19C15.9543 19 17.7643 18.5514 19.2734 17.7826Z" fill="#FFFFFF" fill-rule="evenodd" />
</svg>