<?xml version="1.0" encoding="utf-8"?>
<svg width="167.49" height="187.681" viewBox="0 0 167.49 187.681" fill="none" xmlns="http://www.w3.org/2000/svg">
  <path d="M5.25702 140.875L5.25702 100.214L28.3788 100.214L28.3788 124.609L28.3788 164.82L5.25702 164.82L5.25702 140.875ZM33.8839 124.61L33.8839 109.391C33.8839 109.391 62.4379 109.463 62.4379 109.463C63.4174 109.668 66.9768 112.626 68.0199 113.425C68.0199 113.425 84.1683 125.906 84.1683 125.906C86.0473 127.342 87.5736 128.643 89.6695 130.029C89.6695 130.029 97.4273 136.137 97.4273 136.137C99.9835 138.182 103.153 140.125 104.52 143.36C107.917 151.403 101.692 159.293 93.35 158.579C91.5805 158.428 89.4847 157.524 88.2952 156.651C80.9066 151.226 65.9192 138.844 60.3086 135.086C59.6128 135.596 57.5619 138.293 57.0053 139.125C57.0053 139.125 82.0128 158.529 82.0128 158.529C86.1324 161.824 90.7139 165.305 98.3197 163.561C103.798 162.305 105.69 159.64 108.009 156.733C109.028 155.458 136.877 142.105 141.891 139.965C146.463 138.013 151.606 133.708 158.366 139.059C162.717 142.504 163.77 150.241 159.506 154.646C157.332 156.892 155.627 157.56 152.801 158.952C144.815 162.886 125.855 172.629 118.979 175.414C112.29 178.123 106.352 181.483 97.6947 182.391C84.203 183.807 66.8635 173.694 56.1437 168.252C54.7427 167.541 53.9585 166.958 52.604 166.286C52.604 166.286 41.4736 160.533 41.4736 160.533C39.5594 159.461 35.9503 157.226 33.8839 156.745C33.8839 156.745 33.8839 124.61 33.8839 124.61ZM97.7438 130.028C96.9919 128.745 93.1564 126.19 91.6594 125.021C91.6594 125.021 72.632 110.28 72.632 110.28C70.4292 108.56 68.6083 107.212 66.3958 105.505C63.3704 103.17 61.6594 103.885 56.6386 103.885C49.0537 103.885 41.4689 103.885 33.8839 103.885C33.8839 92.2969 36.2148 94.7073 10.0282 94.7073C6.78903 94.7073 1.26086 93.8235 0.289337 96.3462C-0.240082 97.7209 0.118958 135.88 0.118958 140.868C0.118958 140.868 0.0965576 167.045 0.0965576 167.045C0.236053 170.655 2.48749 169.969 5.99054 169.96C8.36108 169.954 31.0778 170.239 32.2455 169.789C34.45 168.939 33.8839 165.461 33.8839 162.617C33.8839 162.617 45.7507 168.736 45.7507 168.736C47.9052 169.809 49.457 170.779 51.4999 171.795C51.4999 171.795 66.2986 179.385 66.2986 179.385C82.8235 187.655 95.2597 190.872 113.001 183.751C114.167 183.283 115.173 182.888 116.151 182.497C116.151 182.497 125.518 178.284 125.518 178.284C129.753 176.165 133.469 174.235 137.852 172.266C142.212 170.307 158.606 162.197 161.768 159.845C163.306 158.7 164.84 156.768 165.768 155.036C166.84 153.035 167.486 150.539 167.49 147.571C167.496 141.164 164.992 138.188 161.706 134.984C160.331 133.643 157.912 132.433 156.028 131.853C148.386 129.5 142.393 133.654 135.424 137.167C133.33 138.223 131.529 138.929 129.429 139.981C129.429 139.981 110.956 149.036 110.956 149.036C110.956 138.852 105.898 135.993 100.153 131.575C99.0592 130.733 98.9019 130.212 97.7438 130.028C97.7438 130.028 97.7438 130.028 97.7438 130.028ZM101.414 17.9871C97.2243 18.0803 93.3395 22.2434 93.3395 25.3286C93.3395 28.8372 93.1898 31.6431 97.2459 33.9021C102.979 37.0952 109.488 33.3252 109.488 39.6448C109.488 40.5027 108.551 41.4063 107.968 41.7949C106.916 42.4963 98.4776 44.2676 98.4776 39.6448C98.4776 39.6448 98.4776 37.4421 98.4776 37.4421C98.4776 37.4421 93.3395 37.4421 93.3395 37.4421C93.3395 41.0374 92.9127 43.8672 96.2564 46.2715C96.9862 46.7964 97.5517 47.2134 98.7061 47.4924C101.793 48.2385 101.414 46.1479 101.414 53.5942C101.414 53.5942 106.552 53.5942 106.552 53.5942C106.552 53.5942 106.552 47.7209 106.552 47.7209C115.602 47.519 118.496 34.2598 109.082 30.8735C104.825 29.3425 98.4776 31.397 98.4776 26.7971C98.4776 22.4785 104.184 23.1262 106.552 23.1262C111.359 23.1262 108.084 28.2654 110.589 28.2654C110.589 28.2654 114.993 28.2654 114.993 28.2654C114.993 24.6406 115.15 22.7178 112.535 20.0786C110.753 18.2788 109.243 18.2473 106.552 17.6201C106.552 17.6201 106.552 12.1138 106.552 12.1138L101.414 12.1138C101.414 12.1138 101.414 17.9871 101.414 17.9871ZM79.3932 34.4705C79.3932 30.5947 79.885 27.2944 81.0138 24.3801C83.0955 19.0044 86.7539 14.3989 91.7513 11.6265C94.1753 10.2815 97.3833 8.93262 100.399 8.5293C108.701 7.41895 114.565 10.0784 118.93 13.3149C122.32 15.8284 125.007 19.301 126.641 23.2229C126.983 24.0442 127.191 24.6511 127.419 25.3755C127.419 25.3755 128.31 27.5313 128.31 27.5313C128.113 29.3149 128.601 31.1016 128.588 33.4146C128.539 41.5771 123.722 49.7065 116.947 53.7136C114.04 55.4333 111.377 56.6599 107.566 57.1775C94.3932 58.9668 82.1886 50.0657 79.9156 37.2883C79.6556 35.8269 79.9181 35.6255 79.3932 34.4705C79.3932 34.4705 79.3932 34.4705 79.3932 34.4705ZM133.344 27.2729C132.882 21.0376 127.436 13.0854 122.497 9.3811C108.996 -0.743164 91.2005 1.6582 81.7031 12.9558C75.9616 19.7854 74.2551 25.2451 74.2551 34.4756C74.2551 41.6399 78.772 50.9609 84.3179 55.2761C85.2889 56.0315 85.9065 56.5461 86.7335 57.2649C78.1518 57.2649 76.8092 61.2793 76.8238 67.5425C76.8345 72.3042 76.3575 73.0432 78.4905 76.155C79.8467 78.1333 82.4153 79.2898 85.6324 79.2898C85.6324 79.2898 85.6324 80.4905 85.6324 80.4905C84.6252 81.8052 85.5281 89.0481 85.6324 90.3022C81.8607 90.6165 79.4684 92.3452 78.1651 95.3145C77.0499 97.8547 77.0779 104.346 78.0381 107.075C79.0315 109.899 81.7717 112.184 85.2537 112.339C89.3435 112.521 93.9604 112.327 98.1108 112.327C106.55 112.327 115.017 112.398 123.451 112.344C127.524 112.318 130.101 110.343 131.402 107.448C132.213 105.643 132.258 104.537 132.248 102.053C132.248 102.053 131.875 95.8086 131.875 95.8086C137.368 95.6863 139.987 91.657 139.959 86.2732C139.959 86.2732 139.877 81.2175 139.877 81.2175C139.674 80.2898 139.91 80.9177 139.583 80.4905C139.507 76.7275 135.751 73.7834 131.142 73.7834C131.142 70.3835 132.321 65.605 130.554 61.8904C128.969 58.5601 126.367 57.2646 121.599 57.2646C122.605 55.7625 128.029 52.7417 131.249 45.2585C133.307 40.4771 135.023 33.4607 133.344 27.2725C133.344 27.2725 133.344 27.2729 133.344 27.2729ZM84.978 62.5046C84.978 62.5046 123.264 62.5046 123.264 62.5046C124.851 62.5046 126.148 63.8032 126.148 65.3904C126.148 65.3904 126.148 71.1602 126.148 71.1602C126.148 72.7473 124.851 74.0457 123.264 74.0457C123.264 74.0457 84.978 74.0457 84.978 74.0457C83.3914 74.0457 82.0933 72.7476 82.0933 71.1602C82.0933 71.1602 82.0933 65.3904 82.0933 65.3904C82.0933 63.8032 83.3914 62.5046 84.978 62.5046C84.978 62.5046 84.978 62.5046 84.978 62.5046ZM93.5008 78.8979C93.5008 78.8979 131.787 78.8979 131.787 78.8979C133.373 78.8979 134.671 80.1963 134.671 81.7832C134.671 81.7832 134.671 87.5532 134.671 87.5532C134.671 89.1404 133.373 90.4385 131.787 90.4385C131.787 90.4385 93.5008 90.4385 93.5008 90.4385C91.9141 90.4385 90.6161 89.1401 90.6161 87.5532C90.6161 87.5532 90.6161 81.7832 90.6161 81.7832C90.6161 80.196 91.9141 78.8979 93.5008 78.8979C93.5008 78.8979 93.5008 78.8979 93.5008 78.8979ZM85.6339 95.553C85.6339 95.553 123.92 95.553 123.92 95.553C125.506 95.553 126.804 96.8511 126.804 98.4385C126.804 98.4385 126.804 104.208 126.804 104.208C126.804 105.795 125.506 107.094 123.92 107.094C123.92 107.094 85.6339 107.094 85.6339 107.094C84.0469 107.094 82.7489 105.795 82.7489 104.208C82.7489 104.208 82.7489 98.4385 82.7489 98.4385C82.7489 96.8513 84.0469 95.553 85.6339 95.553C85.6339 95.553 85.6339 95.553 85.6339 95.553ZM30.2275 46.9729C30.2479 41.6909 28.674 41.834 23.6079 41.8472C19.6936 41.8574 15.7779 41.8477 11.8633 41.8477C14.736 37.5569 24.8161 24.7463 26.5435 21.6992C26.5435 21.6992 37.1869 7.34155 37.1869 7.34155C39.0047 8.67358 52.3246 28.3972 53.7023 29.0781C53.7023 29.0781 55.8528 32.355 55.8528 32.355C56.6975 33.4702 57.315 34.4385 58.158 35.5554C59.2029 36.9402 62.1366 40.4465 62.5104 41.8474C58.1016 41.8474 53.693 41.8508 49.2844 41.8335C46.903 41.824 45.2799 41.8877 44.7187 43.874C44.1712 45.8127 44.5272 48.4648 44.5272 50.5754C44.5272 50.5754 44.5272 83.3276 44.5272 83.3276C44.5272 83.3276 30.2136 83.3276 30.2136 83.3276C30.2136 71.1956 30.181 59.1062 30.2275 46.9727C30.2275 46.9727 30.2275 46.9729 30.2275 46.9729ZM24.7085 47.354C19.4473 47.354 14.1782 47.3259 8.91794 47.363C0.586548 47.4219 4.26706 43.0227 6.77646 39.6968C7.85367 38.269 19.311 22.3552 20.3043 21.6958C21.2425 19.8147 28.1061 10.7573 29.8471 8.44336C33.7506 3.25464 35.3549 0.163086 37.0828 0C37.0828 0 37.3807 0 37.3807 0C38.3543 0.0969238 39.4088 1.11499 40.962 3.19873C40.962 3.19873 59.9415 29.0781 59.9415 29.0781C59.9415 29.0781 69.4332 41.8982 69.4332 41.8982C69.8923 42.51 70.3272 42.9204 70.6332 43.6787C71.2686 45.252 70.3127 46.7727 68.6107 47.2146C67.2175 47.5767 52.1922 47.3538 50.0323 47.3538C50.0323 47.3538 50.0323 52.3567 50.0323 52.3567C50.0323 59.2542 50.0323 66.1521 50.0323 73.0493C50.0323 84.7168 51.5503 88.5945 45.6359 88.8418C21.0489 89.8711 24.7085 88.9778 24.7085 78.9226C24.7085 68.3992 24.7085 57.9026 24.7085 47.3538C24.7085 47.3538 24.7085 47.354 24.7085 47.354Z" fill="#695DEF" fill-rule="evenodd" />
</svg>