<?xml version="1.0" encoding="utf-8"?>
<svg width="13.939" height="20" viewBox="0 0 13.939 20" fill="none" xmlns="http://www.w3.org/2000/svg">
  <path d="M0.473907 5.89809L2.83719 5.89809L2.83719 4.10187C2.83719 1.84582 4.69678 0 6.9697 0C9.24261 0 11.1022 1.84582 11.1022 4.10187L11.1022 5.89809L13.4655 5.89809C13.5027 5.89809 13.532 5.92844 13.5331 5.96521L13.9388 18.6578C13.9623 19.3954 13.33 20 12.5865 20L1.35284 20C0.609406 20 -0.0229492 19.3956 0.000640869 18.6578L0.406311 5.96521C0.40744 5.9283 0.436707 5.89809 0.473907 5.89809ZM4.51181 5.89809L9.42758 5.89809L9.42758 4.54626C9.42758 3.20442 8.32153 2.10659 6.9697 2.10659C5.61786 2.10659 4.51181 3.20442 4.51181 4.54626L4.51181 5.89809Z" fill="#FFFFFF" fill-rule="evenodd" />
</svg>