<?xml version="1.0" encoding="utf-8"?>
<svg width="18" height="20" viewBox="0 0 18 20" fill="none" xmlns="http://www.w3.org/2000/svg">
  <path d="M15.8571 0L2.14294 0C0.964066 0 0 0.944588 0 2.09947L0 15.3238C0 16.4787 0.964066 17.4232 2.14294 17.4232L12.1763 17.4232L18 20L18 2.09947C18 0.944817 17.0359 0 15.8571 0ZM12.5156 12.1884C13.5836 11.6443 14.4359 10.8525 14.9436 9.91191C15.1993 9.34749 14.5285 8.63088 14.0734 9.22099C13.6806 9.94838 12.9923 10.576 12.1132 11.0238C11.2296 11.4741 10.1619 11.7367 9.00916 11.7367C7.85646 11.7367 6.78876 11.4741 5.90511 11.0238C5.02602 10.576 4.33777 9.94838 3.94493 9.22099C3.42128 8.70988 2.77904 9.3373 3.07472 9.91191C3.58241 10.8525 4.43471 11.6443 5.50269 12.1884C6.50882 12.7009 7.71545 13 9.00916 13C10.3029 13 11.5095 12.7009 12.5156 12.1884Z" fill="#FFFFFF" fill-rule="evenodd" />
</svg>